<?xml version="1.0" standalone="no"?>
<!DOCTYPE svg PUBLIC "-//W3C//DTD SVG 20010904//EN"
 "http://www.w3.org/TR/2001/REC-SVG-20010904/DTD/svg10.dtd">
<svg version="1.0" xmlns="http://www.w3.org/2000/svg"
 width="45.000000pt" height="45.000000pt" viewBox="0 0 45.000000 45.000000"
 preserveAspectRatio="xMidYMid meet">
<metadata>
Created by potrace 1.15, written by Peter Selinger 2001-2017
</metadata>
<g transform="translate(0.000000,45.000000) scale(0.100000,-0.100000)"
fill="#000000" stroke="none">
<path d="M0 225 l0 -225 78 0 77 0 -51 24 c-58 27 -75 57 -77 133 -2 61 21
100 74 122 25 10 39 23 39 34 0 57 56 103 114 94 21 -3 36 -2 36 4 0 6 7 3 16
-5 8 -9 27 -16 41 -16 25 0 77 -43 65 -54 -3 -3 0 -6 6 -6 7 0 12 -16 12 -41
0 -27 -4 -38 -11 -33 -8 4 -9 -1 -4 -16 5 -16 4 -20 -5 -15 -9 5 -10 1 -5 -15
4 -13 3 -20 -2 -17 -5 3 -17 -8 -27 -26 l-18 -32 22 25 c17 20 19 21 11 4 -11
-22 -43 -53 -40 -38 3 16 -1 48 -5 43 -2 -2 -7 -22 -10 -44 -9 -52 -28 -80
-74 -104 l-37 -20 113 -1 112 0 0 225 0 225 -225 0 -225 0 0 -225z"/>
</g>
</svg>
